<svg width="768" height="529" viewBox="0 0 768 529" fill="none" xmlns="http://www.w3.org/2000/svg">
<rect x="160" y="263.513" width="447" height="39.8982" fill="white"/>
<rect x="160.5" y="0.5" width="446" height="302.412" stroke="white"/>
<line x1="160" y1="166.516" x2="607" y2="166.516" stroke="white"/>
<line y1="-0.5" x2="275.717" y2="-0.5" transform="matrix(-0.580306 0.814398 -0.852388 -0.522909 160 301.556)" stroke="url(#paint0_linear)"/>
<line y1="-0.5" x2="275.717" y2="-0.5" transform="matrix(0.580306 0.814398 0.852388 -0.522909 608 303.412)" stroke="url(#paint1_linear)"/>
<line y1="-0.5" x2="334.02" y2="-0.5" transform="matrix(-0.479014 0.877807 -0.905092 -0.425216 160 0)" stroke="url(#paint2_linear)"/>
<line y1="-0.5" x2="334.02" y2="-0.5" transform="matrix(0.479014 0.877807 0.905092 -0.425216 607 0)" stroke="url(#paint3_linear)"/>
<line x1="70" y1="428.173" x2="696" y2="428.173" stroke="white"/>
<line x1="23" y1="494.979" x2="229" y2="494.979" stroke="white" stroke-opacity="0.5"/>
<line y1="-0.5" x2="71.3307" y2="-0.5" transform="matrix(0.35048 -0.93657 0.951821 0.306653 229 495.479)" stroke="url(#paint4_linear)"/>
<line y1="-0.5" x2="206" y2="-0.5" transform="matrix(-1 0 0 1 744 495.479)" stroke="white" stroke-opacity="0.5"/>
<line y1="-0.5" x2="71.3307" y2="-0.5" transform="matrix(-0.35048 -0.93657 -0.951821 0.306653 538 495.479)" stroke="url(#paint5_linear)"/>
<line x1="384.5" y1="428" x2="384.5" y2="514" stroke="url(#paint6_linear)"/>
<defs>
<linearGradient id="paint0_linear" x1="268.077" y1="-1.27883" x2="-0.000533261" y2="-0.123764" gradientUnits="userSpaceOnUse">
<stop stop-color="white" stop-opacity="0"/>
<stop offset="0.423661" stop-color="white"/>
</linearGradient>
<linearGradient id="paint1_linear" x1="268.077" y1="-1.27883" x2="-0.000533261" y2="-0.123764" gradientUnits="userSpaceOnUse">
<stop stop-color="white" stop-opacity="0"/>
<stop offset="0.423661" stop-color="white"/>
</linearGradient>
<linearGradient id="paint2_linear" x1="0" y1="0" x2="334.02" y2="2.19359e-06" gradientUnits="userSpaceOnUse">
<stop offset="0.452015" stop-color="white"/>
<stop offset="1" stop-color="white" stop-opacity="0"/>
</linearGradient>
<linearGradient id="paint3_linear" x1="0" y1="0" x2="334.02" y2="2.19359e-06" gradientUnits="userSpaceOnUse">
<stop offset="0.452015" stop-color="white"/>
<stop offset="1" stop-color="white" stop-opacity="0"/>
</linearGradient>
<linearGradient id="paint4_linear" x1="71.3307" y1="-3.57627e-07" x2="0" y2="1.11413e-07" gradientUnits="userSpaceOnUse">
<stop offset="0.177782" stop-color="white"/>
<stop offset="1" stop-color="white" stop-opacity="0.5"/>
</linearGradient>
<linearGradient id="paint5_linear" x1="71.3307" y1="-3.57628e-07" x2="0" y2="-4.43835e-08" gradientUnits="userSpaceOnUse">
<stop stop-color="white"/>
<stop offset="1" stop-color="white" stop-opacity="0.5"/>
</linearGradient>
<linearGradient id="paint6_linear" x1="384" y1="428" x2="384" y2="514" gradientUnits="userSpaceOnUse">
<stop stop-color="white"/>
<stop offset="1" stop-color="white" stop-opacity="0"/>
</linearGradient>
</defs>
</svg>
