<svg width="768" height="529" viewBox="0 0 768 529" fill="none" xmlns="http://www.w3.org/2000/svg">
<rect x="160" y="263.513" width="447" height="39.8982" fill="white"/>
<rect x="160.5" y="0.5" width="446" height="302.412" stroke="white"/>
<line x1="160" y1="166.516" x2="607" y2="166.516" stroke="white"/>
<line y1="-0.5" x2="275.717" y2="-0.5" transform="matrix(-0.580306 0.814398 -0.852388 -0.522909 160 301.556)" stroke="url(#paint0_linear)"/>
<line y1="-0.5" x2="275.717" y2="-0.5" transform="matrix(0.580306 0.814398 0.852388 -0.522909 608 303.412)" stroke="url(#paint1_linear)"/>
<line y1="-0.5" x2="334.02" y2="-0.5" transform="matrix(-0.479014 0.877807 -0.905092 -0.425216 160 0)" stroke="url(#paint2_linear)"/>
<line y1="-0.5" x2="334.02" y2="-0.5" transform="matrix(0.479014 0.877807 0.905092 -0.425216 607 0)" stroke="url(#paint3_linear)"/>
<line x1="70" y1="428.173" x2="696" y2="428.173" stroke="white"/>
<line x1="23" y1="494.979" x2="229" y2="494.979" stroke="white" stroke-opacity="0.5"/>
<line y1="-0.5" x2="71.3307" y2="-0.5" transform="matrix(0.35048 -0.93657 0.951821 0.306653 229 495.479)" stroke="url(#paint4_linear)"/>
<line y1="-0.5" x2="206" y2="-0.5" transform="matrix(-1 0 0 1 744 495.479)" stroke="white" stroke-opacity="0.5"/>
<line y1="-0.5" x2="71.3307" y2="-0.5" transform="matrix(-0.35048 -0.93657 -0.951821 0.306653 538 495.479)" stroke="url(#paint5_linear)"/>
<path d="M262.246 87V147H259.606V90.84L231.286 148.12L203.126 90.12V147H200.486V87H204.246L231.286 142.68L258.566 87H262.246ZM288.467 162.92C282.494 162.92 277.774 160.787 274.307 156.52V152.44C276.067 155.213 278.067 157.267 280.307 158.6C282.547 159.987 285.16 160.68 288.147 160.68C291.187 160.68 293.774 160.04 295.907 158.76C298.094 157.48 299.747 155.72 300.867 153.48C301.987 151.293 302.547 148.84 302.547 146.12V140.04C301.267 142.547 299.32 144.493 296.707 145.88C294.147 147.213 291.347 147.88 288.307 147.88C285.267 147.88 282.574 147.213 280.227 145.88C277.88 144.547 276.04 142.68 274.707 140.28C273.427 137.88 272.787 135.107 272.787 131.96V111H275.347V131.96C275.347 134.84 275.934 137.32 277.107 139.4C278.334 141.427 279.934 142.973 281.907 144.04C283.88 145.107 286.04 145.64 288.387 145.64C290.947 145.64 293.32 145.027 295.507 143.8C297.694 142.52 299.4 140.84 300.627 138.76C301.907 136.627 302.547 134.36 302.547 131.96V111H305.107V145.88C305.107 149.08 304.44 151.96 303.107 154.52C301.827 157.133 299.934 159.187 297.427 160.68C294.92 162.173 291.934 162.92 288.467 162.92ZM345.786 148.12C339.12 148.12 333.946 145.373 330.266 139.88V135.56C331.706 138.76 333.786 141.267 336.506 143.08C339.28 144.893 342.586 145.8 346.426 145.8C349.093 145.8 351.546 145.213 353.786 144.04C356.08 142.867 357.893 141.213 359.226 139.08C360.56 136.947 361.226 134.493 361.226 131.72C361.226 129.213 360.8 127.053 359.946 125.24C359.093 123.427 357.68 121.693 355.706 120.04C353.733 118.333 350.88 116.333 347.146 114.04L344.586 112.44C342.24 111 340.346 109.72 338.906 108.6C337.466 107.48 336.213 106.173 335.146 104.68C333.76 102.6 333.066 100.2 333.066 97.48C333.066 93.8533 334.24 91.0267 336.586 89C338.933 86.9733 341.92 85.96 345.546 85.96C350.453 85.96 354.346 87.7733 357.226 91.4V95.48C356 93.24 354.32 91.48 352.186 90.2C350.053 88.92 347.706 88.28 345.146 88.28C342.48 88.28 340.24 89.1067 338.426 90.76C336.613 92.4133 335.706 94.6267 335.706 97.4C335.706 100.12 336.533 102.467 338.186 104.44C339.893 106.36 342.746 108.467 346.746 110.76C351.653 113.64 355.466 116.253 358.186 118.6C360.106 120.36 361.493 122.307 362.346 124.44C363.253 126.573 363.706 128.947 363.706 131.56C363.706 134.867 362.933 137.773 361.386 140.28C359.84 142.787 357.706 144.733 354.986 146.12C352.266 147.453 349.2 148.12 345.786 148.12ZM405.383 138.04C403.943 141.027 401.703 143.427 398.663 145.24C395.676 147 392.476 147.88 389.063 147.88C385.649 147.88 382.476 147.027 379.543 145.32C376.609 143.613 374.289 141.32 372.583 138.44C370.876 135.507 370.023 132.36 370.023 129C370.023 125.64 370.876 122.52 372.583 119.64C374.289 116.707 376.609 114.387 379.543 112.68C382.476 110.973 385.649 110.12 389.063 110.12C392.529 110.12 395.809 111.053 398.903 112.92C401.996 114.733 404.156 117.107 405.383 120.04V111H407.943V163H405.383V138.04ZM389.223 145.64C392.156 145.64 394.876 144.893 397.383 143.4C399.889 141.853 401.863 139.827 403.303 137.32C404.796 134.76 405.543 131.987 405.543 129C405.543 126.067 404.796 123.32 403.303 120.76C401.809 118.2 399.809 116.173 397.303 114.68C394.796 113.133 392.076 112.36 389.143 112.36C386.209 112.36 383.463 113.133 380.903 114.68C378.396 116.227 376.369 118.28 374.823 120.84C373.329 123.4 372.583 126.147 372.583 129.08C372.583 132.013 373.329 134.76 374.823 137.32C376.369 139.827 378.423 141.853 380.983 143.4C383.543 144.893 386.289 145.64 389.223 145.64ZM433.88 147.88C428.813 147.88 424.893 146.493 422.12 143.72C419.4 140.947 418.04 137.027 418.04 131.96V111H420.6V131.96C420.6 136.333 421.747 139.72 424.04 142.12C426.387 144.467 429.667 145.64 433.88 145.64C436.44 145.64 438.787 145.08 440.92 143.96C443.053 142.787 444.733 141.16 445.96 139.08C447.187 137 447.8 134.627 447.8 131.96V111H450.36V147H447.8V140.28C446.573 142.52 444.733 144.36 442.28 145.8C439.827 147.187 437.027 147.88 433.88 147.88ZM477.422 147.88C474.009 147.88 470.835 147.027 467.902 145.32C464.969 143.613 462.649 141.32 460.942 138.44C459.235 135.507 458.382 132.36 458.382 129C458.382 125.64 459.235 122.52 460.942 119.64C462.649 116.707 464.969 114.387 467.902 112.68C470.835 110.973 474.009 110.12 477.422 110.12C480.889 110.12 484.169 111.053 487.262 112.92C490.355 114.733 492.515 117.107 493.742 120.04V111H496.302V147H493.742V138.04C492.302 141.027 490.062 143.427 487.022 145.24C484.035 147 480.835 147.88 477.422 147.88ZM477.582 145.64C480.515 145.64 483.235 144.893 485.742 143.4C488.249 141.853 490.222 139.827 491.662 137.32C493.155 134.76 493.902 131.987 493.902 129C493.902 126.067 493.155 123.32 491.662 120.76C490.169 118.2 488.169 116.173 485.662 114.68C483.155 113.133 480.435 112.36 477.502 112.36C474.569 112.36 471.822 113.133 469.262 114.68C466.755 116.227 464.729 118.28 463.182 120.84C461.689 123.4 460.942 126.147 460.942 129.08C460.942 132.013 461.689 134.76 463.182 137.32C464.729 139.827 466.782 141.853 469.342 143.4C471.902 144.893 474.649 145.64 477.582 145.64ZM515.119 147.88C512.559 147.88 510.293 147.453 508.319 146.6C506.346 145.693 504.933 144.547 504.079 143.16V138.92C505.093 141.213 506.479 142.92 508.239 144.04C509.999 145.107 512.239 145.64 514.959 145.64C517.573 145.64 519.679 144.84 521.279 143.24C522.879 141.587 523.679 139.48 523.679 136.92C523.679 134.733 523.226 133.053 522.319 131.88C521.413 130.653 519.946 129.427 517.919 128.2L514.879 126.44C512.693 125.107 511.039 124.067 509.919 123.32C508.853 122.52 507.999 121.64 507.359 120.68C506.719 119.667 506.399 118.493 506.399 117.16C506.399 115.027 507.146 113.32 508.639 112.04C510.133 110.76 512.079 110.12 514.479 110.12C517.413 110.12 519.866 110.787 521.839 112.12V115.64C520.186 113.453 517.813 112.36 514.719 112.36C513.013 112.36 511.626 112.787 510.559 113.64C509.493 114.493 508.959 115.587 508.959 116.92C508.959 118.093 509.279 119.133 509.919 120.04C510.559 120.893 511.439 121.693 512.559 122.44C513.733 123.187 515.653 124.307 518.319 125.8C521.039 127.347 523.039 128.947 524.319 130.6C525.599 132.2 526.239 134.307 526.239 136.92C526.239 140.227 525.146 142.893 522.959 144.92C520.826 146.893 518.213 147.88 515.119 147.88ZM534.212 87H536.772V118.44C537.892 116.04 539.785 114.067 542.452 112.52C545.172 110.92 547.919 110.12 550.692 110.12C555.759 110.12 559.652 111.507 562.372 114.28C565.145 117.053 566.532 120.973 566.532 126.04V147H563.972V126.04C563.972 121.667 562.799 118.307 560.452 115.96C558.159 113.56 554.905 112.36 550.692 112.36C548.132 112.36 545.785 112.973 543.652 114.2C541.519 115.373 539.839 117.027 538.612 119.16C537.385 121.24 536.772 123.533 536.772 126.04V147H534.212V87ZM334.199 242.6C328.599 242.6 323.452 241.24 318.759 238.52C314.065 235.747 310.332 231.96 307.559 227.16C304.839 222.307 303.479 216.867 303.479 210.84C303.479 205.027 304.892 199.72 307.719 194.92C310.599 190.12 314.412 186.333 319.159 183.56C323.959 180.787 329.052 179.4 334.439 179.4C338.172 179.4 341.132 179.747 343.319 180.44C345.505 181.08 348.039 182.227 350.919 183.88V186.84C348.199 184.973 345.665 183.667 343.319 182.92C341.025 182.12 338.145 181.72 334.679 181.72C329.399 181.72 324.572 183.08 320.199 185.8C315.879 188.467 312.439 192.067 309.879 196.6C307.372 201.08 306.119 205.907 306.119 211.08C306.119 216.307 307.399 221.16 309.959 225.64C312.519 230.12 315.905 233.693 320.119 236.36C324.385 238.973 328.972 240.28 333.879 240.28C337.399 240.28 340.465 239.88 343.079 239.08C345.692 238.227 348.305 236.92 350.919 235.16V238.12C348.359 239.667 345.719 240.787 342.999 241.48C340.332 242.227 337.399 242.6 334.199 242.6ZM374.689 241.72C372.182 241.72 369.889 241.16 367.809 240.04C365.729 238.867 364.075 237.24 362.849 235.16C361.622 233.08 361.009 230.76 361.009 228.2V181H363.569V228.2C363.569 230.333 364.049 232.253 365.009 233.96C366.022 235.667 367.382 237.027 369.089 238.04C370.795 239 372.662 239.48 374.689 239.48V241.72ZM398.802 241.88C393.735 241.88 389.815 240.493 387.042 237.72C384.322 234.947 382.962 231.027 382.962 225.96V205H385.522V225.96C385.522 230.333 386.669 233.72 388.962 236.12C391.309 238.467 394.589 239.64 398.802 239.64C401.362 239.64 403.709 239.08 405.842 237.96C407.975 236.787 409.655 235.16 410.882 233.08C412.109 231 412.722 228.627 412.722 225.96V205H415.282V241H412.722V234.28C411.495 236.52 409.655 238.36 407.202 239.8C404.749 241.187 401.949 241.88 398.802 241.88ZM444.264 241.88C441.01 241.88 437.864 241 434.824 239.24C431.837 237.48 429.544 235.16 427.944 232.28V241H425.384V181H427.944V214.12C429.384 211.08 431.624 208.653 434.664 206.84C437.704 205.027 440.904 204.12 444.264 204.12C447.73 204.12 450.904 204.973 453.784 206.68C456.717 208.387 459.037 210.68 460.744 213.56C462.45 216.44 463.304 219.587 463.304 223C463.304 226.413 462.45 229.56 460.744 232.44C459.037 235.32 456.717 237.613 453.784 239.32C450.904 241.027 447.73 241.88 444.264 241.88ZM444.424 239.64C447.357 239.64 450.077 238.893 452.584 237.4C455.09 235.853 457.064 233.827 458.504 231.32C459.997 228.76 460.744 225.987 460.744 223C460.744 220.067 459.997 217.32 458.504 214.76C457.01 212.2 455.01 210.173 452.504 208.68C449.997 207.133 447.277 206.36 444.344 206.36C441.41 206.36 438.664 207.133 436.104 208.68C433.597 210.227 431.57 212.28 430.024 214.84C428.53 217.4 427.784 220.147 427.784 223.08C427.784 226.013 428.53 228.76 430.024 231.32C431.57 233.827 433.624 235.853 436.184 237.4C438.744 238.893 441.49 239.64 444.424 239.64Z" fill="white"/>
<line x1="384.5" y1="428" x2="384.5" y2="514" stroke="url(#paint6_linear)"/>
<defs>
<linearGradient id="paint0_linear" x1="268.077" y1="-1.27883" x2="-0.000533261" y2="-0.123764" gradientUnits="userSpaceOnUse">
<stop stop-color="white" stop-opacity="0"/>
<stop offset="0.423661" stop-color="white"/>
</linearGradient>
<linearGradient id="paint1_linear" x1="268.077" y1="-1.27883" x2="-0.000533261" y2="-0.123764" gradientUnits="userSpaceOnUse">
<stop stop-color="white" stop-opacity="0"/>
<stop offset="0.423661" stop-color="white"/>
</linearGradient>
<linearGradient id="paint2_linear" x1="0" y1="0" x2="334.02" y2="2.19359e-06" gradientUnits="userSpaceOnUse">
<stop offset="0.452015" stop-color="white"/>
<stop offset="1" stop-color="white" stop-opacity="0"/>
</linearGradient>
<linearGradient id="paint3_linear" x1="0" y1="0" x2="334.02" y2="2.19359e-06" gradientUnits="userSpaceOnUse">
<stop offset="0.452015" stop-color="white"/>
<stop offset="1" stop-color="white" stop-opacity="0"/>
</linearGradient>
<linearGradient id="paint4_linear" x1="71.3307" y1="-3.57627e-07" x2="0" y2="1.11413e-07" gradientUnits="userSpaceOnUse">
<stop offset="0.177782" stop-color="white"/>
<stop offset="1" stop-color="white" stop-opacity="0.5"/>
</linearGradient>
<linearGradient id="paint5_linear" x1="71.3307" y1="-3.57628e-07" x2="0" y2="-4.43835e-08" gradientUnits="userSpaceOnUse">
<stop stop-color="white"/>
<stop offset="1" stop-color="white" stop-opacity="0.5"/>
</linearGradient>
<linearGradient id="paint6_linear" x1="384" y1="428" x2="384" y2="514" gradientUnits="userSpaceOnUse">
<stop stop-color="white"/>
<stop offset="1" stop-color="white" stop-opacity="0"/>
</linearGradient>
</defs>
</svg>
