<svg width="768" height="529" viewBox="0 0 768 529" fill="none" xmlns="http://www.w3.org/2000/svg">
<rect x="160" y="263.513" width="447" height="39.8982" fill="white"/>
<rect x="160.5" y="0.5" width="446" height="302.412" stroke="white"/>
<line x1="160" y1="166.516" x2="607" y2="166.516" stroke="white"/>
<line y1="-0.5" x2="275.717" y2="-0.5" transform="matrix(-0.580306 0.814398 -0.852388 -0.522909 160 301.556)" stroke="url(#paint0_linear)"/>
<line y1="-0.5" x2="275.717" y2="-0.5" transform="matrix(0.580306 0.814398 0.852388 -0.522909 608 303.412)" stroke="url(#paint1_linear)"/>
<line y1="-0.5" x2="334.02" y2="-0.5" transform="matrix(-0.479014 0.877807 -0.905092 -0.425216 160 0)" stroke="url(#paint2_linear)"/>
<line y1="-0.5" x2="334.02" y2="-0.5" transform="matrix(0.479014 0.877807 0.905092 -0.425216 607 0)" stroke="url(#paint3_linear)"/>
<line x1="70" y1="428.173" x2="696" y2="428.173" stroke="white"/>
<line x1="23" y1="494.979" x2="229" y2="494.979" stroke="white" stroke-opacity="0.5"/>
<line y1="-0.5" x2="71.3307" y2="-0.5" transform="matrix(0.35048 -0.93657 0.951821 0.306653 229 495.479)" stroke="url(#paint4_linear)"/>
<line y1="-0.5" x2="206" y2="-0.5" transform="matrix(-1 0 0 1 744 495.479)" stroke="white" stroke-opacity="0.5"/>
<line y1="-0.5" x2="71.3307" y2="-0.5" transform="matrix(-0.35048 -0.93657 -0.951821 0.306653 538 495.479)" stroke="url(#paint5_linear)"/>
<line x1="384.5" y1="428" x2="384.5" y2="514" stroke="url(#paint6_linear)"/>
<path d="M265.816 102.352C268.473 102.352 271.041 102.518 273.521 102.85C276.021 103.162 278.258 103.709 280.23 104.49C282.223 105.252 283.854 106.287 285.123 107.596C286.412 108.904 287.164 110.535 287.379 112.488L279.762 114.598C279.762 113.426 279.361 112.469 278.561 111.727C277.779 110.965 276.734 110.369 275.426 109.939C274.137 109.49 272.652 109.178 270.973 109.002C269.312 108.826 267.594 108.738 265.816 108.738C264.078 108.738 262.369 108.816 260.689 108.973C259.01 109.129 257.496 109.422 256.148 109.852C254.82 110.281 253.746 110.877 252.926 111.639C252.105 112.4 251.695 113.387 251.695 114.598V121.57H287.379V136.746C287.379 138.055 287.086 139.227 286.5 140.262C285.934 141.277 285.143 142.166 284.127 142.928C283.131 143.67 281.939 144.305 280.553 144.832C279.186 145.34 277.701 145.75 276.1 146.062C274.518 146.375 272.848 146.6 271.09 146.736C269.332 146.873 267.574 146.941 265.816 146.941C264.02 146.941 262.252 146.873 260.514 146.736C258.775 146.6 257.125 146.375 255.562 146.062C254 145.75 252.545 145.34 251.197 144.832C249.869 144.305 248.697 143.67 247.682 142.928C246.666 142.166 245.846 141.277 245.221 140.262C244.596 139.246 244.215 138.074 244.078 136.746L251.695 134.637C251.695 135.848 252.105 136.834 252.926 137.596C253.746 138.357 254.82 138.953 256.148 139.383C257.496 139.812 259.01 140.105 260.689 140.262C262.369 140.418 264.078 140.496 265.816 140.496C267.594 140.496 269.312 140.418 270.973 140.262C272.652 140.086 274.137 139.783 275.426 139.354C276.734 138.904 277.779 138.299 278.561 137.537C279.361 136.775 279.762 135.809 279.762 134.637V127.488H244.078V112.488C244.078 111.18 244.361 110.027 244.928 109.031C245.514 108.016 246.305 107.137 247.301 106.395C248.316 105.633 249.518 104.998 250.904 104.49C252.291 103.963 253.785 103.543 255.387 103.23C257.008 102.918 258.697 102.693 260.455 102.557C262.232 102.42 264.02 102.352 265.816 102.352ZM313.629 113.602C315.289 113.602 316.998 113.67 318.756 113.807C320.533 113.924 322.242 114.09 323.883 114.305C325.523 114.5 327.057 114.734 328.482 115.008C329.928 115.281 331.168 115.574 332.203 115.887V158.133H324.527V144.949C322.75 145.574 320.914 146.072 319.02 146.443C317.145 146.814 315.348 147 313.629 147C310.621 147 307.936 146.795 305.572 146.385C303.209 145.955 301.207 145.301 299.566 144.422C297.926 143.543 296.676 142.43 295.816 141.082C294.957 139.734 294.527 138.133 294.527 136.277V124.324C294.527 122.469 294.957 120.867 295.816 119.52C296.676 118.172 297.926 117.059 299.566 116.18C301.207 115.301 303.209 114.656 305.572 114.246C307.936 113.816 310.621 113.602 313.629 113.602ZM315.738 141.141C316.715 141.141 317.613 141.072 318.434 140.936C319.273 140.799 320.045 140.633 320.748 140.438C321.471 140.223 322.135 139.988 322.74 139.734C323.365 139.461 323.961 139.188 324.527 138.914V120.574C324 120.379 323.385 120.193 322.682 120.018C321.998 119.822 321.266 119.656 320.484 119.52C319.723 119.363 318.932 119.246 318.111 119.168C317.311 119.09 316.52 119.051 315.738 119.051C313.902 119.051 312.164 119.1 310.523 119.197C308.883 119.295 307.447 119.559 306.217 119.988C304.986 120.418 304.01 121.082 303.287 121.98C302.564 122.859 302.203 124.09 302.203 125.672V134.285C302.203 135.32 302.369 136.209 302.701 136.951C303.033 137.693 303.492 138.318 304.078 138.826C304.684 139.334 305.396 139.744 306.217 140.057C307.057 140.35 307.975 140.584 308.971 140.76C309.967 140.916 311.031 141.023 312.164 141.082C313.316 141.121 314.508 141.141 315.738 141.141ZM348.668 136.395C348.668 137.293 348.99 138.045 349.635 138.65C350.299 139.256 351.178 139.754 352.271 140.145C353.385 140.516 354.664 140.789 356.109 140.965C357.555 141.121 359.059 141.199 360.621 141.199C362.262 141.199 363.805 141.111 365.25 140.936C366.695 140.74 367.955 140.457 369.029 140.086C370.104 139.695 370.953 139.197 371.578 138.592C372.203 137.986 372.516 137.254 372.516 136.395V113.602L380.309 114.188V138.27C380.309 139.324 380.045 140.291 379.518 141.17C379.01 142.049 378.297 142.84 377.379 143.543C376.461 144.227 375.377 144.822 374.127 145.33C372.877 145.838 371.52 146.258 370.055 146.59C368.609 146.922 367.076 147.166 365.455 147.322C363.854 147.498 362.242 147.586 360.621 147.586C358.98 147.586 357.359 147.498 355.758 147.322C354.156 147.166 352.623 146.922 351.158 146.59C349.713 146.258 348.365 145.838 347.115 145.33C345.865 144.822 344.781 144.227 343.863 143.543C342.945 142.84 342.223 142.059 341.695 141.199C341.188 140.32 340.934 139.344 340.934 138.27V114.188L348.668 113.602V136.395ZM422.379 135.047C421.891 134.617 421.285 134.197 420.562 133.787C419.84 133.377 418.951 133.016 417.896 132.703C416.842 132.371 415.582 132.107 414.117 131.912C412.672 131.697 410.973 131.59 409.02 131.59C407.281 131.59 405.631 131.629 404.068 131.707C402.525 131.766 401.168 131.961 399.996 132.293C398.824 132.605 397.896 133.113 397.213 133.816C396.529 134.52 396.188 135.496 396.188 136.746V140.496C397.906 140.77 399.801 140.994 401.871 141.17C403.941 141.346 406.246 141.434 408.785 141.434C410.816 141.434 412.975 141.365 415.26 141.229C417.564 141.072 419.938 140.77 422.379 140.32V135.047ZM409.195 113.602C410.172 113.602 411.354 113.65 412.74 113.748C414.127 113.846 415.572 114.021 417.076 114.275C418.58 114.51 420.064 114.842 421.529 115.271C423.014 115.682 424.342 116.229 425.514 116.912C426.705 117.576 427.662 118.377 428.385 119.314C429.107 120.252 429.469 121.355 429.469 122.625V145.301C427.828 145.633 425.973 145.916 423.902 146.15C422.125 146.365 420.006 146.561 417.545 146.736C415.084 146.912 412.34 147 409.312 147C406.305 147 403.102 146.873 399.703 146.619C396.324 146.365 392.789 145.926 389.098 145.301V134.754C389.098 133.621 389.361 132.635 389.889 131.795C390.436 130.936 391.178 130.203 392.115 129.598C393.053 128.992 394.156 128.494 395.426 128.104C396.695 127.713 398.062 127.4 399.527 127.166C400.992 126.932 402.516 126.775 404.098 126.697C405.68 126.6 407.262 126.551 408.844 126.551C411.246 126.551 413.287 126.707 414.967 127.02C416.666 127.312 418.072 127.635 419.186 127.986C420.475 128.416 421.539 128.895 422.379 129.422V124.676C422.379 123.875 422.184 123.191 421.793 122.625C421.402 122.039 420.875 121.551 420.211 121.16C419.547 120.75 418.785 120.428 417.926 120.193C417.066 119.939 416.168 119.744 415.23 119.607C414.293 119.471 413.336 119.383 412.359 119.344C411.402 119.305 410.504 119.285 409.664 119.285C408.785 119.285 407.848 119.314 406.852 119.373C405.855 119.412 404.859 119.5 403.863 119.637C402.887 119.773 401.939 119.969 401.021 120.223C400.123 120.457 399.322 120.779 398.619 121.189C397.916 121.6 397.35 122.098 396.92 122.684C396.51 123.25 396.305 123.934 396.305 124.734L389.039 122.859C389.039 121.551 389.361 120.418 390.006 119.461C390.65 118.484 391.5 117.654 392.555 116.971C393.629 116.287 394.859 115.73 396.246 115.301C397.633 114.852 399.068 114.51 400.553 114.275C402.057 114.021 403.551 113.846 405.035 113.748C406.52 113.65 407.906 113.602 409.195 113.602ZM457.242 113.602C459.566 113.602 461.832 113.748 464.039 114.041C466.246 114.314 468.229 114.793 469.986 115.477C471.744 116.141 473.189 117.049 474.322 118.201C475.455 119.354 476.129 120.789 476.344 122.508L469.547 124.383C469.547 123.367 469.195 122.527 468.492 121.863C467.809 121.18 466.891 120.652 465.738 120.281C464.605 119.891 463.297 119.617 461.812 119.461C460.328 119.305 458.805 119.227 457.242 119.227C455.738 119.227 454.244 119.305 452.76 119.461C451.295 119.598 449.977 119.861 448.805 120.252C447.652 120.623 446.715 121.141 445.992 121.805C445.289 122.469 444.938 123.328 444.938 124.383V127.957H476.344V138.094C476.344 139.246 476.09 140.271 475.582 141.17C475.074 142.049 474.371 142.82 473.473 143.484C472.574 144.129 471.51 144.686 470.279 145.154C469.068 145.604 467.75 145.965 466.324 146.238C464.918 146.512 463.434 146.707 461.871 146.824C460.328 146.941 458.785 147 457.242 147C454.879 147 452.594 146.863 450.387 146.59C448.18 146.297 446.197 145.818 444.439 145.154C442.682 144.471 441.236 143.562 440.104 142.43C438.99 141.277 438.336 139.832 438.141 138.094L444.938 136.219C444.938 137.293 445.289 138.162 445.992 138.826C446.715 139.49 447.652 140.008 448.805 140.379C449.977 140.75 451.295 141.004 452.76 141.141C454.244 141.258 455.738 141.316 457.242 141.316C458.805 141.316 460.328 141.248 461.812 141.111C463.297 140.955 464.605 140.691 465.738 140.32C466.891 139.93 467.809 139.412 468.492 138.768C469.195 138.104 469.547 137.254 469.547 136.219V132.645H438.141V122.508C438.141 121.355 438.395 120.34 438.902 119.461C439.41 118.562 440.104 117.791 440.982 117.146C441.881 116.482 442.936 115.926 444.146 115.477C445.357 115.008 446.666 114.637 448.072 114.363C449.498 114.09 450.982 113.895 452.525 113.777C454.088 113.66 455.66 113.602 457.242 113.602ZM505.523 113.602C508.531 113.602 511.109 113.855 513.258 114.363C515.406 114.852 517.164 115.594 518.531 116.59C519.918 117.566 520.924 118.787 521.549 120.252C522.193 121.717 522.516 123.426 522.516 125.379V147H514.84V127.195C514.84 126.102 514.693 125.164 514.4 124.383C514.107 123.582 513.707 122.908 513.199 122.361C512.711 121.795 512.135 121.336 511.471 120.984C510.807 120.633 510.113 120.369 509.391 120.193C508.688 119.998 507.965 119.871 507.223 119.812C506.48 119.734 505.777 119.695 505.113 119.695C503.863 119.695 502.672 119.783 501.539 119.959C500.406 120.135 499.332 120.379 498.316 120.691C497.301 120.984 496.344 121.336 495.445 121.746C494.547 122.156 493.707 122.586 492.926 123.035V147H485.25V102.41H492.926V117.469C493.824 116.922 494.742 116.414 495.68 115.945C496.617 115.477 497.594 115.066 498.609 114.715C499.645 114.363 500.729 114.09 501.861 113.895C503.014 113.699 504.234 113.602 505.523 113.602ZM295.611 176.352C298.268 176.352 300.836 176.518 303.316 176.85C305.816 177.162 308.053 177.709 310.025 178.49C312.018 179.252 313.648 180.287 314.918 181.596C316.207 182.904 316.959 184.535 317.174 186.488L309.557 188.598C309.557 187.426 309.156 186.469 308.355 185.727C307.574 184.965 306.529 184.369 305.221 183.939C303.932 183.49 302.447 183.178 300.768 183.002C299.107 182.826 297.389 182.738 295.611 182.738C293.873 182.738 292.164 182.816 290.484 182.973C288.805 183.129 287.291 183.422 285.943 183.852C284.615 184.281 283.541 184.877 282.721 185.639C281.9 186.4 281.49 187.387 281.49 188.598V195.57H317.174V210.746C317.174 212.055 316.881 213.227 316.295 214.262C315.729 215.277 314.938 216.166 313.922 216.928C312.926 217.67 311.734 218.305 310.348 218.832C308.98 219.34 307.496 219.75 305.895 220.062C304.312 220.375 302.643 220.6 300.885 220.736C299.127 220.873 297.369 220.941 295.611 220.941C293.814 220.941 292.047 220.873 290.309 220.736C288.57 220.6 286.92 220.375 285.357 220.062C283.795 219.75 282.34 219.34 280.992 218.832C279.664 218.305 278.492 217.67 277.477 216.928C276.461 216.166 275.641 215.277 275.016 214.262C274.391 213.246 274.01 212.074 273.873 210.746L281.49 208.637C281.49 209.848 281.9 210.834 282.721 211.596C283.541 212.357 284.615 212.953 285.943 213.383C287.291 213.812 288.805 214.105 290.484 214.262C292.164 214.418 293.873 214.496 295.611 214.496C297.389 214.496 299.107 214.418 300.768 214.262C302.447 214.086 303.932 213.783 305.221 213.354C306.529 212.904 307.574 212.299 308.355 211.537C309.156 210.775 309.557 209.809 309.557 208.637V201.488H273.873V186.488C273.873 185.18 274.156 184.027 274.723 183.031C275.309 182.016 276.1 181.137 277.096 180.395C278.111 179.633 279.312 178.998 280.699 178.49C282.086 177.963 283.58 177.543 285.182 177.23C286.803 176.918 288.492 176.693 290.25 176.557C292.027 176.42 293.814 176.352 295.611 176.352ZM344.244 187.074C345.865 187.074 347.496 187.152 349.137 187.309C350.777 187.465 352.35 187.719 353.854 188.07C355.357 188.422 356.764 188.861 358.072 189.389C359.381 189.916 360.514 190.551 361.471 191.293C362.447 192.035 363.209 192.895 363.756 193.871C364.303 194.828 364.576 195.902 364.576 197.094L357.076 198.207C357.076 197.367 356.715 196.615 355.992 195.951C355.27 195.268 354.312 194.701 353.121 194.252C351.93 193.783 350.562 193.432 349.02 193.197C347.477 192.943 345.885 192.816 344.244 192.816C342.682 192.816 341.139 192.934 339.615 193.168C338.092 193.383 336.725 193.715 335.514 194.164C334.322 194.613 333.346 195.18 332.584 195.863C331.842 196.527 331.471 197.309 331.471 198.207V210.395C331.471 211.293 331.842 212.074 332.584 212.738C333.346 213.383 334.322 213.93 335.514 214.379C336.725 214.809 338.092 215.131 339.615 215.346C341.139 215.561 342.682 215.668 344.244 215.668C345.885 215.668 347.477 215.551 349.02 215.316C350.562 215.082 351.93 214.75 353.121 214.32C354.312 213.871 355.27 213.324 355.992 212.68C356.715 212.016 357.076 211.254 357.076 210.395L364.576 212.27C364.576 213.324 364.303 214.291 363.756 215.17C363.209 216.049 362.447 216.84 361.471 217.543C360.514 218.227 359.381 218.822 358.072 219.33C356.764 219.838 355.357 220.258 353.854 220.59C352.35 220.922 350.777 221.166 349.137 221.322C347.496 221.498 345.865 221.586 344.244 221.586C342.623 221.586 340.992 221.498 339.352 221.322C337.73 221.166 336.168 220.922 334.664 220.59C333.16 220.258 331.754 219.838 330.445 219.33C329.156 218.822 328.023 218.227 327.047 217.543C326.09 216.84 325.338 216.059 324.791 215.199C324.244 214.32 323.971 213.344 323.971 212.27V197.094C323.971 195.902 324.244 194.828 324.791 193.871C325.338 192.895 326.09 192.035 327.047 191.293C328.023 190.551 329.156 189.916 330.445 189.389C331.754 188.861 333.16 188.422 334.664 188.07C336.168 187.719 337.73 187.465 339.352 187.309C340.992 187.152 342.623 187.074 344.244 187.074ZM391.178 187.074C392.818 187.074 394.449 187.152 396.07 187.309C397.711 187.465 399.283 187.719 400.787 188.07C402.291 188.422 403.697 188.861 405.006 189.389C406.314 189.916 407.447 190.551 408.404 191.293C409.381 192.035 410.143 192.895 410.689 193.871C411.236 194.828 411.51 195.902 411.51 197.094V212.27C411.51 213.324 411.236 214.291 410.689 215.17C410.143 216.049 409.381 216.84 408.404 217.543C407.447 218.227 406.314 218.822 405.006 219.33C403.697 219.838 402.291 220.258 400.787 220.59C399.283 220.922 397.711 221.166 396.07 221.322C394.43 221.498 392.799 221.586 391.178 221.586C389.557 221.586 387.926 221.498 386.285 221.322C384.664 221.166 383.102 220.922 381.598 220.59C380.094 220.258 378.688 219.838 377.379 219.33C376.09 218.822 374.957 218.227 373.98 217.543C373.023 216.84 372.271 216.059 371.725 215.199C371.178 214.32 370.904 213.344 370.904 212.27V197.094C370.904 195.902 371.178 194.828 371.725 193.871C372.271 192.895 373.023 192.035 373.98 191.293C374.957 190.551 376.09 189.916 377.379 189.389C378.688 188.861 380.094 188.422 381.598 188.07C383.102 187.719 384.664 187.465 386.285 187.309C387.926 187.152 389.557 187.074 391.178 187.074ZM378.346 210.395C378.346 211.293 378.717 212.074 379.459 212.738C380.221 213.383 381.207 213.93 382.418 214.379C383.629 214.809 384.996 215.131 386.52 215.346C388.062 215.561 389.615 215.668 391.178 215.668C392.818 215.668 394.4 215.551 395.924 215.316C397.467 215.082 398.834 214.75 400.025 214.32C401.217 213.871 402.164 213.324 402.867 212.68C403.59 212.016 403.951 211.254 403.951 210.395V198.207C403.951 197.367 403.59 196.615 402.867 195.951C402.164 195.268 401.217 194.701 400.025 194.252C398.834 193.783 397.467 193.432 395.924 193.197C394.4 192.943 392.818 192.816 391.178 192.816C389.615 192.816 388.062 192.934 386.52 193.168C384.996 193.383 383.629 193.715 382.418 194.164C381.207 194.613 380.221 195.18 379.459 195.863C378.717 196.527 378.346 197.309 378.346 198.207V210.395ZM444.674 187.602C444.674 189.633 444.605 191.752 444.469 193.959C444.332 196.146 444.068 198.402 443.678 200.727H436.588C436.764 200.062 436.93 199.34 437.086 198.559C437.203 197.895 437.311 197.123 437.408 196.244C437.525 195.346 437.584 194.398 437.584 193.402C435.865 193.441 434.439 193.607 433.307 193.9C432.193 194.174 431.266 194.506 430.523 194.896C429.781 195.268 429.176 195.648 428.707 196.039C428.238 196.43 427.818 196.742 427.447 196.977V221H419.947V196.801C419.869 196.176 419.684 195.648 419.391 195.219C419.117 194.789 418.824 194.438 418.512 194.164C418.16 193.832 417.76 193.559 417.311 193.344L420.416 187.602C421.139 187.855 421.852 188.197 422.555 188.627C423.16 188.998 423.795 189.477 424.459 190.062C425.143 190.629 425.748 191.332 426.275 192.172C427.271 191.488 428.189 190.912 429.029 190.443C429.869 189.955 430.68 189.545 431.461 189.213C432.262 188.881 433.082 188.627 433.922 188.451C434.781 188.256 435.719 188.1 436.734 187.982C437.77 187.865 438.922 187.787 440.191 187.748C441.48 187.689 442.975 187.641 444.674 187.602ZM472.447 187.602C473.443 187.602 474.645 187.65 476.051 187.748C477.457 187.846 478.912 188.021 480.416 188.275C481.939 188.51 483.443 188.852 484.928 189.301C486.412 189.73 487.74 190.287 488.912 190.971C490.104 191.654 491.061 192.484 491.783 193.461C492.525 194.418 492.896 195.551 492.896 196.859V206.762H459.322V214.262C461.686 214.594 463.961 214.828 466.148 214.965C468.336 215.082 470.436 215.141 472.447 215.141C475.514 215.141 478.287 215.023 480.768 214.789C483.268 214.555 485.426 214.291 487.242 213.998C489.332 213.666 491.217 213.285 492.896 212.855V219.359C489.186 219.945 485.602 220.365 482.145 220.619C478.707 220.873 475.475 221 472.447 221C469.4 221 466.637 220.922 464.156 220.766C461.676 220.59 459.547 220.395 457.77 220.18C455.699 219.945 453.834 219.672 452.174 219.359V196.859C452.174 195.551 452.496 194.418 453.141 193.461C453.785 192.484 454.645 191.654 455.719 190.971C456.793 190.287 458.023 189.73 459.41 189.301C460.816 188.852 462.271 188.51 463.775 188.275C465.279 188.021 466.773 187.846 468.258 187.748C469.762 187.65 471.158 187.602 472.447 187.602ZM459.322 202.074H485.631V198.676C485.631 197.875 485.436 197.191 485.045 196.625C484.654 196.039 484.127 195.551 483.463 195.16C482.818 194.77 482.057 194.457 481.178 194.223C480.318 193.969 479.42 193.783 478.482 193.666C477.545 193.529 476.598 193.441 475.641 193.402C474.703 193.363 473.814 193.344 472.975 193.344C472.096 193.344 471.148 193.363 470.133 193.402C469.137 193.441 468.131 193.529 467.115 193.666C466.1 193.803 465.123 193.998 464.186 194.252C463.248 194.486 462.418 194.809 461.695 195.219C460.973 195.609 460.396 196.098 459.967 196.684C459.537 197.25 459.322 197.934 459.322 198.734V202.074Z" fill="#FFD400"/>
<defs>
<linearGradient id="paint0_linear" x1="268.077" y1="-1.27883" x2="-0.000533261" y2="-0.123764" gradientUnits="userSpaceOnUse">
<stop stop-color="white" stop-opacity="0"/>
<stop offset="0.423661" stop-color="white"/>
</linearGradient>
<linearGradient id="paint1_linear" x1="268.077" y1="-1.27883" x2="-0.000533261" y2="-0.123764" gradientUnits="userSpaceOnUse">
<stop stop-color="white" stop-opacity="0"/>
<stop offset="0.423661" stop-color="white"/>
</linearGradient>
<linearGradient id="paint2_linear" x1="0" y1="0" x2="334.02" y2="2.19359e-06" gradientUnits="userSpaceOnUse">
<stop offset="0.452015" stop-color="white"/>
<stop offset="1" stop-color="white" stop-opacity="0"/>
</linearGradient>
<linearGradient id="paint3_linear" x1="0" y1="0" x2="334.02" y2="2.19359e-06" gradientUnits="userSpaceOnUse">
<stop offset="0.452015" stop-color="white"/>
<stop offset="1" stop-color="white" stop-opacity="0"/>
</linearGradient>
<linearGradient id="paint4_linear" x1="71.3307" y1="-3.57627e-07" x2="0" y2="1.11413e-07" gradientUnits="userSpaceOnUse">
<stop offset="0.177782" stop-color="white"/>
<stop offset="1" stop-color="white" stop-opacity="0.5"/>
</linearGradient>
<linearGradient id="paint5_linear" x1="71.3307" y1="-3.57628e-07" x2="0" y2="-4.43835e-08" gradientUnits="userSpaceOnUse">
<stop stop-color="white"/>
<stop offset="1" stop-color="white" stop-opacity="0.5"/>
</linearGradient>
<linearGradient id="paint6_linear" x1="384" y1="428" x2="384" y2="514" gradientUnits="userSpaceOnUse">
<stop stop-color="white"/>
<stop offset="1" stop-color="white" stop-opacity="0"/>
</linearGradient>
</defs>
</svg>
